# xmcd CD database file
#
# Track frame offsets:
#	150
#	30857
#	47770
#	72830
#	89175
#	111540
#	138545
#	156025
#	178127
#	205495
#	224075
#	246542
#
# Disc length: 4061 seconds
#
# Revision: 6
# Processed by: cddbd v1.5.2PL0 Copyright (c) Steve Scherf et al.
# Submitted via: CDex 1.70beta3
#
DISCID=c10fdb0c
DTITLE=嘉門達夫 - 天賦の才能
DYEAR=1992
DGENRE=Pop
TTITLE0=アカペラな夜
TTITLE1=んなアホな！
TTITLE2=この中にひとり
TTITLE3=あったらコワイセレナーデ'92
TTITLE4=ええ話やなあ
TTITLE5=鼻から牛乳
TTITLE6=おすもうちゃん
TTITLE7=つくばねの唄
TTITLE8=よくわかる日本史
TTITLE9=反抗期II
TTITLE10=ブルーバレンタイン
TTITLE11=替え唄大メドレー
EXTD=YEAR: 1992
EXTT0=
EXTT1=
EXTT2=
EXTT3=
EXTT4=
EXTT5=
EXTT6=
EXTT7=
EXTT8=
EXTT9=
EXTT10=
EXTT11=
PLAYORDER=
